PathFileType	4	(X/Y/Z)	output.trc
DataRate	CameraRate	NumFrames	NumMarkers	Units	OrigDataRate	OrigDataStartFrame	OrigNumFrames
100	100	12	23	m	100	710	5673
Frame#	Time	C7			T8			EL			EM			US			RS			AA			Fore_Clus_1			Fore_Clus_2			Fore_Clus_3			Fore_Clus_4			Hum_Clus_1			Hum_Clus_2			Hum_Clus_3			Hum_Clus_4			Thor_Clus_1			Thor_Clus_2			Thor_Clus_3			Thor_Clus_4			IJ			PX			GH			Thor_Clus_5		
		X1	Y1	Z1	X2	Y2	Z2	X3	Y3	Z3	X4	Y4	Z4	X5	Y5	Z5	X6	Y6	Z6	X7	Y7	Z7	X8	Y8	Z8	X9	Y9	Z9	X10	Y10	Z10	X11	Y11	Z11	X12	Y12	Z12	X13	Y13	Z13	X14	Y14	Z14	X15	Y15	Z15	X16	Y16	Z16	X17	Y17	Z17	X18	Y18	Z18	X19	Y19	Z19	X20	Y20	Z20	X21	Y21	Z21	X22	Y22	Z22	X23	Y23	Z23
709	7.090000	-0.088414	1.522811	-0.142003	-0.109755	1.293694	-0.213403	-0.305297	1.147091	0.019446	-0.284812	1.128806	-0.052914	-0.268884	0.875676	0.064532	-0.222407	0.891176	0.092201	-0.244496	1.451204	-0.014948	-0.291355	0.926158	0.084140	-0.279356	0.874409	0.097053	-0.257087	0.883141	0.111750	-0.255997	0.940958	0.107900	-0.294438	1.248234	0.059077	-0.330363	1.265278	0.013833	-0.325412	1.328443	0.019230	-0.282908	1.321569	0.059493	0.033808	1.414874	-0.003652	-0.007912	1.359949	0.045171	-0.006047	1.409924	0.016299	0.049389	1.367307	0.016567	-0.021512	1.434645	-0.042838	0.005441	1.222941	0.015892	-0.220220	1.422103	-0.020837	-0.014960	1.380989	0.036070
710	7.100000	-0.088353	1.523035	-0.141875	-0.109613	1.294014	-0.213605	-0.305312	1.147085	0.019426	-0.284830	1.128798	-0.052934	-0.268900	0.875676	0.064532	-0.222422	0.891178	0.092199	-0.244506	1.451229	-0.015019	-0.291361	0.926168	0.084122	-0.279368	0.874417	0.097036	-0.257088	0.883138	0.111743	-0.256014	0.940972	0.107884	-0.294462	1.248243	0.059048	-0.330376	1.265280	0.013809	-0.325446	1.328445	0.019195	-0.282929	1.321567	0.059450	0.033660	1.414811	-0.003791	-0.007936	1.359952	0.045145	-0.006078	1.409934	0.016283	0.049366	1.367298	0.016514	-0.021501	1.434743	-0.042789	0.005446	1.222962	0.015666	-0.220247	1.422099	-0.020870	-0.014991	1.380993	0.036040
711	7.110000	-0.088277	1.523280	-0.141738	-0.109455	1.294363	-0.213825	-0.305330	1.147078	0.019407	-0.284849	1.128789	-0.052953	-0.268913	0.875676	0.064534	-0.222436	0.891183	0.092200	-0.244512	1.451264	-0.015102	-0.291381	0.926168	0.084135	-0.279385	0.874419	0.097037	-0.257112	0.883143	0.111727	-0.256034	0.940972	0.107877	-0.294490	1.248231	0.059017	-0.330405	1.265257	0.013754	-0.325467	1.328438	0.019159	-0.282955	1.321564	0.059407	0.036170	1.416688	-0.000973	-0.007974	1.359944	0.045118	-0.006119	1.409920	0.016236	0.049344	1.367297	0.016485	-0.021485	1.434849	-0.042736	0.005448	1.222985	0.015423	-0.220275	1.422093	-0.020904	-0.015016	1.380981	0.036012
712	7.120000	-0.088196	1.523531	-0.141602	-0.109289	1.294721	-0.214053	-0.305351	1.147071	0.019386	-0.284869	1.128779	-0.052973	-0.268928	0.875677	0.064536	-0.222452	0.891188	0.092201	-0.244518	1.451302	-0.015196	-0.291401	0.926170	0.084108	-0.279410	0.874421	0.097034	-0.257143	0.883146	0.111746	-0.256063	0.940981	0.107882	-0.294519	1.248235	0.058982	-0.330424	1.265255	0.013708	-0.325496	1.328434	0.019113	-0.282992	1.321562	0.059366	0.035893	1.416501	-0.001265	-0.008006	1.359933	0.045090	-0.006146	1.409906	0.016209	0.049299	1.367281	0.016463	-0.021468	1.434959	-0.042683	0.005449	1.223010	0.015174	-0.220305	1.422087	-0.020937	-0.015054	1.380976	0.035990
713	7.130000	-0.088101	1.523791	-0.141468	-0.109115	1.295092	-0.214288	-0.305375	1.147064	0.019364	-0.284891	1.128769	-0.052993	-0.268942	0.875678	0.064538	-0.222468	0.891194	0.092203	-0.244520	1.451354	-0.015300	-0.291423	0.926168	0.084127	-0.279436	0.874434	0.097053	-0.257154	0.883154	0.111736	-0.256088	0.940986	0.107895	-0.294551	1.248241	0.058925	-0.330455	1.265246	0.013669	-0.325524	1.328429	0.019078	-0.283030	1.321552	0.059342	0.035936	1.416567	-0.001199	-0.008043	1.359922	0.045063	-0.006198	1.409905	0.016181	0.049277	1.367270	0.016429	-0.021446	1.435072	-0.042631	0.005443	1.223037	0.014921	-0.220336	1.422080	-0.020971	-0.015100	1.380953	0.035956
714	7.140000	-0.087995	1.524055	-0.141339	-0.108938	1.295466	-0.214525	-0.305403	1.147058	0.019342	-0.284915	1.128759	-0.053014	-0.268957	0.875680	0.064540	-0.222485	0.891202	0.092206	-0.244517	1.451420	-0.015413	-0.291435	0.926174	0.084110	-0.279443	0.874438	0.097040	-0.257160	0.883160	0.111734	-0.256110	0.940997	0.107869	-0.294583	1.248238	0.058883	-0.330487	1.265235	0.013624	-0.325552	1.328417	0.019037	-0.283069	1.321561	0.059300	0.035880	1.416551	-0.001233	-0.008082	1.359926	0.045037	-0.006238	1.409896	0.016156	0.049245	1.367272	0.016403	-0.021420	1.435188	-0.042581	0.005428	1.223066	0.014671	-0.220368	1.422073	-0.021004	-0.015140	1.380949	0.035932
715	7.150000	-0.087883	1.524314	-0.141221	-0.108766	1.295831	-0.214757	-0.305433	1.147052	0.019318	-0.284940	1.128750	-0.053035	-0.268975	0.875682	0.064541	-0.222506	0.891209	0.092208	-0.244511	1.451498	-0.015533	-0.291456	0.926167	0.084111	-0.279473	0.874437	0.097056	-0.257186	0.883155	0.111748	-0.256126	0.940990	0.107872	-0.294628	1.248237	0.058869	-0.330528	1.265221	0.013587	-0.325587	1.328402	0.019005	-0.283123	1.321551	0.059267	0.035805	1.416520	-0.001281	-0.008141	1.359927	0.045016	-0.006287	1.409902	0.016140	0.049192	1.367267	0.016395	-0.021392	1.435303	-0.042536	0.005406	1.223098	0.014431	-0.220402	1.422067	-0.021038	-0.015194	1.380956	0.035918
716	7.160000	-0.087757	1.524573	-0.141112	-0.108600	1.296194	-0.214982	-0.305466	1.147048	0.019294	-0.284966	1.128742	-0.053056	-0.268993	0.875684	0.064541	-0.222527	0.891218	0.092211	-0.244499	1.451597	-0.015657	-0.291464	0.926174	0.084104	-0.279491	0.874436	0.097049	-0.257193	0.883162	0.111725	-0.256129	0.941000	0.107850	-0.294657	1.248236	0.058850	-0.330564	1.265214	0.013560	-0.325616	1.328401	0.018973	-0.283163	1.321556	0.059227	0.035458	1.416409	-0.001561	-0.008188	1.359927	0.044993	-0.006336	1.409914	0.016100	0.049147	1.367266	0.016372	-0.021358	1.435418	-0.042494	0.005372	1.223132	0.014200	-0.220438	1.422062	-0.021071	-0.015237	1.380956	0.035895
717	7.170000	-0.087631	1.524818	-0.141018	-0.108448	1.296535	-0.215193	-0.305502	1.147045	0.019270	-0.284993	1.128735	-0.053077	-0.269015	0.875687	0.064539	-0.222553	0.891225	0.092212	-0.244485	1.451707	-0.015782	-0.291494	0.926165	0.084104	-0.279507	0.874434	0.097034	-0.257216	0.883157	0.111727	-0.256164	0.940997	0.107855	-0.294691	1.248234	0.058820	-0.330602	1.265209	0.013534	-0.325654	1.328396	0.018946	-0.283204	1.321543	0.059202	0.032691	1.415401	-0.003871	-0.008225	1.359933	0.044966	-0.006374	1.409911	0.016080	0.049109	1.367263	0.016345	-0.021324	1.435529	-0.042459	0.005328	1.223168	0.013990	-0.220474	1.422059	-0.021103	-0.015280	1.380961	0.035863
718	7.180000	-0.087501	1.525052	-0.140938	-0.108312	1.296858	-0.215386	-0.305539	1.147045	0.019246	-0.285022	1.128730	-0.053097	-0.269040	0.875690	0.064537	-0.222580	0.891230	0.092213	-0.244466	1.451835	-0.015904	-0.291505	0.926167	0.084098	-0.279535	0.874445	0.097037	-0.257244	0.883171	0.111735	-0.256190	0.941005	0.107853	-0.294728	1.248245	0.058805	-0.330643	1.265204	0.013518	-0.325691	1.328398	0.018914	-0.283234	1.321548	0.059175	0.034608	1.416156	-0.002211	-0.008272	1.359949	0.044950	-0.006417	1.409919	0.016040	0.049064	1.367284	0.016328	-0.021289	1.435637	-0.042430	0.005274	1.223206	0.013799	-0.220512	1.422058	-0.021135	-0.015322	1.380980	0.035847
719	7.190000	-0.087373	1.525270	-0.140873	-0.108197	1.297156	-0.215559	-0.305577	1.147046	0.019223	-0.285050	1.128728	-0.053116	-0.269066	0.875692	0.064533	-0.222609	0.891234	0.092212	-0.244445	1.451975	-0.016019	-0.291539	0.926160	0.084098	-0.279564	0.874439	0.097050	-0.257279	0.883163	0.111747	-0.256210	0.940995	0.107843	-0.294772	1.248239	0.058783	-0.330686	1.265204	0.013497	-0.325733	1.328397	0.018897	-0.283280	1.321563	0.059162	0.035727	1.416598	-0.001281	-0.008306	1.359965	0.044915	-0.006466	1.409946	0.016017	0.049031	1.367306	0.016298	-0.021254	1.435740	-0.042407	0.005209	1.223247	0.013632	-0.220551	1.422058	-0.021165	-0.015363	1.381005	0.035835
720	7.200000	-0.087257	1.525464	-0.140825	-0.108109	1.297415	-0.215705	-0.305615	1.147050	0.019202	-0.285079	1.128727	-0.053134	-0.269098	0.875694	0.064529	-0.222640	0.891234	0.092208	-0.244426	1.452120	-0.016122	-0.291553	0.926168	0.084072	-0.279589	0.874443	0.097029	-0.257287	0.883168	0.111718	-0.256232	0.941013	0.107826	-0.294803	1.248256	0.058761	-0.330731	1.265202	0.013467	-0.325765	1.328397	0.018881	-0.283303	1.321569	0.059135	0.035552	1.416567	-0.001422	-0.008342	1.359986	0.044903	-0.006501	1.409975	0.015998	0.048987	1.367341	0.016285	-0.021225	1.435835	-0.042391	0.005139	1.223289	0.013494	-0.220589	1.422061	-0.021193	-0.015399	1.381024	0.035817
